<svg width="40" height="40" viewBox="0 0 40 40" fill="none" xmlns="http://www.w3.org/2000/svg">
<path fill-rule="evenodd" clip-rule="evenodd" d="M22.3627 1.51424C20.9995 1.49951 19.6651 2.57511 20.1198 4.57561C20.241 5.12119 20.8775 5.66677 20.726 6.30329C20.5744 6.97012 20.0288 7.42478 19.8773 8.18254C19.6045 9.72837 21.12 11.3045 22.6052 11.0317C26.6365 10.3952 26.9699 1.48393 22.3627 1.51424ZM30.2738 13.0019C31.2437 12.032 32.2137 11.0317 33.1836 10.0618C33.8504 9.39496 34.79 8.75844 35.1538 7.81881C35.9418 5.81832 34.2141 4.39374 32.4258 4.42405C31.9995 4.49951 31.9995 4.42405 31.365 4.81809C29.9404 6.24268 28.5158 7.69758 27.0912 9.12218C26.5759 9.66776 26.0303 10.183 25.515 10.7286C24.727 11.9714 25.3635 13.6384 26.2728 14.2446C26.9093 14.6387 28.1521 14.7296 28.8492 14.3356C29.4251 14.0021 29.8191 13.4566 30.2738 13.0019ZM33.0017 13.7294C31.8964 13.7425 31.3043 14.0628 30.5769 14.4871C28.9704 15.4267 27.2427 18.2153 29.6373 19.6702C30.5769 20.2461 31.8802 20.0036 32.6077 19.4277C32.8502 19.2459 32.9714 18.8821 33.3048 18.7912C34.0323 18.579 34.5476 19.0337 35.0325 19.1246C36.548 19.4277 37.5483 18.2759 37.8514 17.306C38.7304 14.5174 35.5478 13.699 33.0017 13.7294Z" fill="#060606"/>
<path fill-rule="evenodd" clip-rule="evenodd" d="M31.5992 25.034C31.174 24.3658 30.5058 23.8495 29.9287 23.3028C28.7746 22.1486 27.6204 20.9944 26.4662 19.8403C24.0061 17.3801 21.5762 14.9199 19.116 12.4597C17.7796 11.1233 16.4433 9.30096 14.712 8.42015C14.1046 8.11642 13.3452 8.05567 12.6467 7.90381C12.0392 8.14679 11.4621 8.08604 10.9458 8.38976C9.42716 9.30094 9.36642 10.9107 8.48561 12.4597C14.6816 18.6861 20.908 24.8821 27.1041 31.1085C27.5596 30.9567 28.0152 30.7744 28.4708 30.6226C30.3539 29.9544 31.5081 29.3469 31.9333 27.1905C32.1156 26.3704 31.9029 25.52 31.5992 25.034ZM5.20536 23.3635C9.03232 27.1905 12.8593 31.0478 16.6862 34.8747C18.9034 34.0851 21.1207 33.2954 23.3379 32.5057C17.9923 27.1601 12.6467 21.7841 7.30107 16.4385C6.6025 18.7468 5.90394 21.0552 5.20536 23.3635ZM1.71251 34.9962C1.31766 37.3653 3.32226 39.2484 5.7217 38.8232C8.27301 38.398 10.3687 36.7882 12.8593 36.3326V36.3023C9.88276 33.3257 6.90623 30.3492 3.92971 27.3727C3.26151 29.924 2.1681 32.2627 1.71251 34.9962Z" fill="#00D4EA"/>
</svg>
