<svg width="40" height="40" viewBox="0 0 40 40" fill="none" xmlns="http://www.w3.org/2000/svg">
<path fill-rule="evenodd" clip-rule="evenodd" d="M38.0475 10.1027C37.838 9.41445 37.3891 8.63641 36.8804 8.24739C34.9952 6.72125 31.0152 7.31974 27.7235 7.31974C20.2724 7.31974 12.6416 7.22996 5.34005 7.22996L4.23286 7.46936C3.27528 7.85838 2.34762 8.60649 1.83891 9.44437C1.18057 10.5216 0.94116 14.8008 1.44988 16.4168C1.68927 17.1649 2.19799 17.913 2.76656 18.3619C4.74157 19.9478 8.15295 19.7085 11.684 19.7085C14.856 19.7085 17.9682 19.5588 21.2599 19.5588C22.6065 19.5888 23.9531 19.6187 25.3296 19.6486C26.9156 19.6486 28.4716 19.6785 30.0576 19.6785H32.3917C35.5039 19.6785 37.2395 19.1399 37.9577 16.8058C38.3766 15.4891 38.4664 11.4792 38.0475 10.1027ZM36.5 22.8505H3.72414V30.8104C3.99346 34.0123 3.69422 35.3889 5.759 36.8851C7 37.5 6.5 37.5 10.5 38C12.0245 38.1906 14.7056 38.2272 16.3243 38.2616C17.7308 38.2915 19.1053 38.2317 20.5118 38.2616C21.4095 38.2616 22.3788 38.3214 23.2766 38.3214C24.5334 38.3214 25.7186 38.3214 26.9754 38.3214C30.3569 38.3214 33.1099 38.501 34.666 36.5858C36.0724 34.8203 36.6228 31.5 36.5 28C36.4402 26.2943 36.5 24.5562 36.5 22.8505Z" fill="#00D4EA"/>
<path fill-rule="evenodd" clip-rule="evenodd" d="M29.4001 1.8137C26.4974 0.676567 20.7519 2.86105 19.8841 4.68644L19.7644 4.77622C18.6273 2.65158 15.6348 2.11294 12.792 1.66407C8.78213 1.03566 6.05901 4.17773 7.82455 7.37964H17.4602V19.6187H22.4277V7.37964H31.016C32.7217 5.13531 31.5247 2.65158 29.4001 1.8137ZM17.4602 38.2317C19.106 38.2617 20.7818 38.3215 22.4277 38.3514V22.8466C20.7818 22.8466 19.1449 22.8466 17.499 22.8466C17.499 27.9338 17.4901 33.1446 17.4602 38.2317Z" fill="#060606"/>
</svg>
