<svg width="41" height="40" viewBox="0 0 41 40" fill="none" xmlns="http://www.w3.org/2000/svg">
<path fill-rule="evenodd" clip-rule="evenodd" d="M37.4821 11.1698C37.4821 8.36326 37.6346 6.22782 36.0178 5.00756C34.1874 3.63478 29.8555 4.12287 26.7439 4.12287H3.95561C2.36927 4.79401 1.5151 4.79402 0.630414 6.19731C-0.0712318 7.32604 -0.193259 12.2071 0.294843 13.9154C0.477881 14.5255 0.935478 15.1357 1.39307 15.5017C2.9794 16.7525 6.67066 16.2644 9.47725 16.2644H29.4284C33.0282 16.2644 36.5059 16.8745 37.3906 14.0374C37.6041 13.2138 37.4821 12.085 37.4821 11.1698ZM34.767 19.6811C24.0593 19.6811 13.321 19.6506 2.61332 19.6506C2.61332 21.542 2.58282 23.4029 2.58282 25.2943C2.58282 28.2534 2.21674 31.7921 3.34548 33.592C3.95561 34.5377 4.93181 35.3614 6.09105 35.7275C7.3113 36.124 9.17219 35.9715 10.7585 35.9715H26.5608C28.6047 35.9715 30.7097 36.0935 32.0825 35.4529C33.3332 34.8733 34.2789 33.653 34.706 32.2192C35.0416 31.0905 34.7365 29.5957 34.7365 28.2534V19.6811H34.767Z" fill="#09E27C"/>
<path fill-rule="evenodd" clip-rule="evenodd" d="M21.2526 4H16.1885C16.1885 6.34899 16.219 8.66747 16.219 11.0165C16.219 12.0537 16.036 13.5485 16.341 14.3722C16.6461 15.1958 17.3477 15.867 18.2934 16.0195C22.1983 16.7822 21.2831 10.7724 21.2831 7.50823C21.2831 6.3795 21.2831 5.18975 21.2526 4ZM38.9767 17.9109C38.2446 17.6058 36.9633 17.7584 35.9871 17.7584H29.7028C29.1021 17.7584 28.8791 17.9109 28.5131 18.1549C27.5674 18.8566 27.7504 20.5955 28.6656 21.1446C29.3672 21.5717 30.7705 21.4191 31.8688 21.4191H36.7498C37.4514 21.4191 38.3666 21.5107 38.8852 21.2971C39.4038 21.0836 39.8614 20.5955 40.014 19.9853C40.2885 19.0396 39.6174 18.1855 38.9767 17.9109ZM34.8279 23.8291H24.6388C24.0725 23.8291 23.7541 23.9512 23.388 24.1952C22.2593 25.0189 22.5948 26.9103 23.7846 27.3984C24.6083 27.7339 26.2251 27.5204 27.2623 27.5204H34.0042C34.9499 27.5204 36.2922 27.7034 37.0854 27.4289C37.665 27.2458 38.1531 26.6662 38.3056 26.0561C38.7937 23.9207 36.6888 23.8291 34.8279 23.8291Z" fill="#060606"/>
</svg>
