<svg width="40" height="40" viewBox="0 0 40 40" fill="none" xmlns="http://www.w3.org/2000/svg">
<path fill-rule="evenodd" clip-rule="evenodd" d="M10.4894 34.7157C15.4529 34.7157 20.3852 34.7157 25.3488 34.7157C27.8149 34.7157 29.5319 34.622 30.2187 36.4014C30.3435 36.776 30.4996 37.3067 30.3747 37.8062C29.8753 40.0538 27.7213 39.929 24.9742 39.929C21.4466 39.929 17.9503 39.929 14.4227 39.929C12.737 39.929 10.2084 40.2411 9.1158 39.5544C7.86711 38.8051 7.49252 36.8072 8.52268 35.5273C9.02216 34.9342 9.7139 34.7162 10.4894 34.7157Z" fill="#060606"/>
<path fill-rule="evenodd" clip-rule="evenodd" d="M33.4326 12.9887C33.1829 11.022 33.0892 9.46112 32.4649 7.93148C30.4045 2.68698 25.3473 -0.0913595 17.8552 0.00229215C17.1996 0.0959438 16.5441 0.189603 15.9197 0.283255C14.5462 0.626644 13.0165 1.03247 11.799 1.65681C7.70959 3.74837 5.39951 7.49444 5.02491 13.0823C4.86882 15.4548 5.46194 17.5152 6.36724 19.0136C7.11646 20.2623 8.02177 21.6046 9.05194 22.5411C10.4255 23.7586 11.8303 24.82 12.9229 26.3184C13.7033 27.411 14.4525 28.6285 14.8583 30.0645C15.7012 32.7804 15.2329 38.5868 19.2912 37.8688C21.2579 37.5254 22.0695 36.3391 22.4129 34.3725C22.4441 33.592 22.5065 32.7804 22.5378 32C22.8499 30.3142 23.3806 28.7846 24.1923 27.5983C25.0664 26.3809 26.3151 25.3819 27.5013 24.4454C27.9071 24.0083 28.313 23.6025 28.7188 23.1655C30.2172 21.6671 31.5596 20.2935 32.4649 18.1707C33.058 16.8284 33.6199 14.5183 33.4326 12.9887ZM19.8843 17.2654C16.0134 17.921 13.0165 13.7691 14.5774 10.1167C15.1081 8.89921 16.2631 8.05634 17.6054 7.68173C18.1049 7.6193 18.6356 7.55687 19.1351 7.46322C25.5971 7.432 25.3785 16.3289 19.8843 17.2654Z" fill="#09E27C"/>
</svg>
